<svg xmlns="http://www.w3.org/2000/svg" viewBox="0 0 288 288" shape-rendering="crispEdges"><rect width="288" height="288" rx="32" fill="#0b0710"/><rect x="80" y="32" width="16" height="16" fill="#ca31cc"/><rect x="176" y="32" width="16" height="16" fill="#3a2a44"/><rect x="192" y="32" width="16" height="16" fill="#3a2a44"/><rect x="64" y="48" width="16" height="16" fill="#ca31cc"/><rect x="80" y="48" width="16" height="16" fill="#ca31cc"/><rect x="128" y="48" width="16" height="16" fill="#3a2a44"/><rect x="144" y="48" width="16" height="16" fill="#3a2a44"/><rect x="160" y="48" width="16" height="16" fill="#3a2a44"/><rect x="176" y="48" width="16" height="16" fill="#3a2a44"/><rect x="192" y="48" width="16" height="16" fill="#3a2a44"/><rect x="208" y="48" width="16" height="16" fill="#3a2a44"/><rect x="48" y="64" width="16" height="16" fill="#ca31cc"/><rect x="64" y="64" width="16" height="16" fill="#ca31cc"/><rect x="112" y="64" width="16" height="16" fill="#3a2a44"/><rect x="128" y="64" width="16" height="16" fill="#3a2a44"/><rect x="144" y="64" width="16" height="16" fill="#3a2a44"/><rect x="160" y="64" width="16" height="16" fill="#3a2a44"/><rect x="176" y="64" width="16" height="16" fill="#3a2a44"/><rect x="192" y="64" width="16" height="16" fill="#3a2a44"/><rect x="208" y="64" width="16" height="16" fill="#3a2a44"/><rect x="224" y="64" width="16" height="16" fill="#3a2a44"/><rect x="32" y="80" width="16" height="16" fill="#ca31cc"/><rect x="48" y="80" width="16" height="16" fill="#ca31cc"/><rect x="64" y="80" width="16" height="16" fill="#ca31cc"/><rect x="96" y="80" width="16" height="16" fill="#3a2a44"/><rect x="112" y="80" width="16" height="16" fill="#3a2a44"/><rect x="224" y="80" width="16" height="16" fill="#3a2a44"/><rect x="240" y="80" width="16" height="16" fill="#3a2a44"/><rect x="32" y="96" width="16" height="16" fill="#ca31cc"/><rect x="48" y="96" width="16" height="16" fill="#ca31cc"/><rect x="64" y="96" width="16" height="16" fill="#ca31cc"/><rect x="96" y="96" width="16" height="16" fill="#3a2a44"/><rect x="112" y="96" width="16" height="16" fill="#3a2a44"/><rect x="144" y="96" width="16" height="16" fill="#ca31cc"/><rect x="160" y="96" width="16" height="16" fill="#ca31cc"/><rect x="176" y="96" width="16" height="16" fill="#ca31cc"/><rect x="192" y="96" width="16" height="16" fill="#ca31cc"/><rect x="48" y="112" width="16" height="16" fill="#ca31cc"/><rect x="64" y="112" width="16" height="16" fill="#ca31cc"/><rect x="96" y="112" width="16" height="16" fill="#3a2a44"/><rect x="176" y="112" width="16" height="16" fill="#ca31cc"/><rect x="192" y="112" width="16" height="16" fill="#ca31cc"/><rect x="208" y="112" width="16" height="16" fill="#ca31cc"/><rect x="48" y="128" width="16" height="16" fill="#ca31cc"/><rect x="64" y="128" width="16" height="16" fill="#ca31cc"/><rect x="96" y="128" width="16" height="16" fill="#3a2a44"/><rect x="208" y="128" width="16" height="16" fill="#ca31cc"/><rect x="224" y="128" width="16" height="16" fill="#ca31cc"/><rect x="48" y="144" width="16" height="16" fill="#ca31cc"/><rect x="64" y="144" width="16" height="16" fill="#ca31cc"/><rect x="176" y="144" width="16" height="16" fill="#3a2a44"/><rect x="208" y="144" width="16" height="16" fill="#ca31cc"/><rect x="224" y="144" width="16" height="16" fill="#ca31cc"/><rect x="64" y="160" width="16" height="16" fill="#ca31cc"/><rect x="80" y="160" width="16" height="16" fill="#ca31cc"/><rect x="96" y="160" width="16" height="16" fill="#ca31cc"/><rect x="176" y="160" width="16" height="16" fill="#3a2a44"/><rect x="208" y="160" width="16" height="16" fill="#ca31cc"/><rect x="224" y="160" width="16" height="16" fill="#ca31cc"/><rect x="80" y="176" width="16" height="16" fill="#ca31cc"/><rect x="96" y="176" width="16" height="16" fill="#ca31cc"/><rect x="112" y="176" width="16" height="16" fill="#ca31cc"/><rect x="128" y="176" width="16" height="16" fill="#ca31cc"/><rect x="160" y="176" width="16" height="16" fill="#3a2a44"/><rect x="176" y="176" width="16" height="16" fill="#3a2a44"/><rect x="208" y="176" width="16" height="16" fill="#ca31cc"/><rect x="224" y="176" width="16" height="16" fill="#ca31cc"/><rect x="240" y="176" width="16" height="16" fill="#ca31cc"/><rect x="32" y="192" width="16" height="16" fill="#3a2a44"/><rect x="48" y="192" width="16" height="16" fill="#3a2a44"/><rect x="160" y="192" width="16" height="16" fill="#3a2a44"/><rect x="176" y="192" width="16" height="16" fill="#3a2a44"/><rect x="208" y="192" width="16" height="16" fill="#ca31cc"/><rect x="224" y="192" width="16" height="16" fill="#ca31cc"/><rect x="240" y="192" width="16" height="16" fill="#ca31cc"/><rect x="48" y="208" width="16" height="16" fill="#3a2a44"/><rect x="64" y="208" width="16" height="16" fill="#3a2a44"/><rect x="80" y="208" width="16" height="16" fill="#3a2a44"/><rect x="96" y="208" width="16" height="16" fill="#3a2a44"/><rect x="112" y="208" width="16" height="16" fill="#3a2a44"/><rect x="128" y="208" width="16" height="16" fill="#3a2a44"/><rect x="144" y="208" width="16" height="16" fill="#3a2a44"/><rect x="160" y="208" width="16" height="16" fill="#3a2a44"/><rect x="208" y="208" width="16" height="16" fill="#ca31cc"/><rect x="224" y="208" width="16" height="16" fill="#ca31cc"/><rect x="64" y="224" width="16" height="16" fill="#3a2a44"/><rect x="80" y="224" width="16" height="16" fill="#3a2a44"/><rect x="96" y="224" width="16" height="16" fill="#3a2a44"/><rect x="112" y="224" width="16" height="16" fill="#3a2a44"/><rect x="128" y="224" width="16" height="16" fill="#3a2a44"/><rect x="144" y="224" width="16" height="16" fill="#3a2a44"/><rect x="192" y="224" width="16" height="16" fill="#ca31cc"/><rect x="208" y="224" width="16" height="16" fill="#ca31cc"/><rect x="80" y="240" width="16" height="16" fill="#3a2a44"/><rect x="96" y="240" width="16" height="16" fill="#3a2a44"/><rect x="192" y="240" width="16" height="16" fill="#ca31cc"/></svg>